# xmcd
#
# Track frame offsets:
#	150
#	27147
#	53693
#	77091
#	103038
#	123956
#	151774
#	181093
#	199090
#
# Disc length: 2857 seconds
#
# Revision: 0
# Processed by: cddbd v1.5.1PL0 Copyright (c) Steve Scherf et al.
# Submitted via: EasyCDDAExtractor 4.6.9.1
#
DISCID=620b2709
DTITLE=Depeche Mode - Live In Silence - CD2
DYEAR=1984
DGENRE=live
TTITLE0=Lie To Me
TTITLE1=Blasphemous Rumours
TTITLE2=Told You So
TTITLE3=Master And Servant
TTITLE4=Photographic
TTITLE5=Everything Counts
TTITLE6=See You
TTITLE7=Shout
TTITLE8=Just Can't Get Enough
EXTD=
EXTT0=
EXTT1=
EXTT2=
EXTT3=
EXTT4=
EXTT5=
EXTT6=
EXTT7=
EXTT8=
PLAYORDER=
